<?xml version="1.0" encoding="utf-8"?>
<!-- Generator: Adobe Illustrator 21.1.0, SVG Export Plug-In . SVG Version: 6.00 Build 0)  -->
<svg version="1.1" id="Слой_1" xmlns="http://www.w3.org/2000/svg" xmlns:xlink="http://www.w3.org/1999/xlink" x="0px" y="0px"
	 width="33.9px" height="33.9px" viewBox="0 0 33.9 33.9" style="enable-background:new 0 0 33.9 33.9;" xml:space="preserve">
<style type="text/css">
	.st0{fill:#FFFFFF;}
</style>
<path class="st0" d="M16.9,33.9C7.6,33.9,0,26.3,0,16.9S7.6,0,16.9,0s16.9,7.6,16.9,16.9S26.3,33.9,16.9,33.9z M16.9,1
	C8.1,1,1,8.1,1,16.9s7.1,15.9,15.9,15.9s15.9-7.1,15.9-15.9S25.7,1,16.9,1z"/>
<path class="st0" d="M14.9,20.7c0-1.1,0-2.3,0-3.4c0-0.3-0.1-0.4-0.4-0.3c-0.3,0.1-0.6,0-0.9,0c-0.2,0-0.3-0.1-0.3-0.3
	c0-0.7,0-1.5,0-2.2c0-0.2,0.1-0.3,0.3-0.3c0.3,0,0.6,0,1,0c0.2,0,0.3-0.1,0.3-0.3c0-0.5,0-1,0-1.5c0-1,0.3-1.9,1.2-2.6
	c0.4-0.3,0.9-0.5,1.5-0.5c0.8,0,1.7,0,2.5-0.1c0.3,0,0.4,0.1,0.4,0.4c0,0.7,0,1.3,0,2c0,0.2-0.1,0.3-0.3,0.3c-0.5,0-1,0-1.4,0.1
	c-0.3,0-0.5,0.3-0.6,0.6c-0.1,0.5-0.1,1-0.1,1.4c0,0.2,0.1,0.2,0.3,0.2c0.6,0,1.2,0,1.8,0c0.3,0,0.3,0.1,0.3,0.3
	c-0.1,0.7-0.1,1.5-0.2,2.2c0,0.2-0.1,0.3-0.3,0.3c-0.5,0-0.9,0-1.4,0c-0.3,0-0.4,0.1-0.4,0.4c0,2.2,0,4.4,0,6.7c0,0.5,0,0.5-0.5,0.5
	c-0.7,0-1.5,0-2.2,0c-0.5,0-0.5,0-0.5-0.5C14.9,22.9,14.9,21.8,14.9,20.7z"/>
</svg>
