<?xml version="1.0" encoding="utf-8"?>
<!-- Generator: Adobe Illustrator 21.1.0, SVG Export Plug-In . SVG Version: 6.00 Build 0)  -->
<svg version="1.1" id="Слой_1" xmlns="http://www.w3.org/2000/svg" xmlns:xlink="http://www.w3.org/1999/xlink" x="0px" y="0px"
	 width="33.9px" height="33.9px" viewBox="0 0 33.9 33.9" style="enable-background:new 0 0 33.9 33.9;" xml:space="preserve">
<style type="text/css">
	.st0{fill:#FFFFFF;}
</style>
<path class="st0" d="M16.9,33.9C7.6,33.9,0,26.3,0,16.9S7.6,0,16.9,0s16.9,7.6,16.9,16.9S26.3,33.9,16.9,33.9z M16.9,1
	C8.1,1,1,8.1,1,16.9s7.1,15.9,15.9,15.9s15.9-7.1,15.9-15.9S25.7,1,16.9,1z"/>
<g>
	<path class="st0" d="M17.1,24.8c-1.2,0-2.5,0-3.7-0.1C12,24.7,10.8,24.1,10,23c-0.5-0.7-0.8-1.6-0.8-2.5C9,18.2,9,16,9.1,13.7
		c0-0.8,0.2-1.6,0.6-2.4c0.7-1.2,1.7-1.9,3-2.1c0.8-0.1,1.7-0.1,2.5-0.2c1.4,0,2.8,0,4.1,0c0.8,0,1.6,0,2.4,0.3
		c1.7,0.5,2.6,1.7,2.9,3.4c0.1,0.8,0.1,1.7,0.2,2.5c0,1.4,0,2.7,0,4.1c0,0.7,0,1.5-0.2,2.2c-0.5,1.7-1.7,2.8-3.4,3
		c-0.8,0.1-1.7,0.1-2.6,0.2C18.1,24.8,17.6,24.8,17.1,24.8C17.1,24.8,17.1,24.8,17.1,24.8z M10.1,16.9
		C10.1,16.9,10.2,16.9,10.1,16.9c0,0.7,0,1.3,0,2c0,0.7,0,1.3,0.1,2c0.1,1.4,1.1,2.4,2.5,2.6c0.7,0.1,1.4,0.1,2.2,0.1
		c1.3,0,2.7,0,4,0c0.7,0,1.3,0,2-0.1c1.4-0.2,2.4-1.1,2.6-2.5c0.1-0.7,0.1-1.4,0.1-2.2c0-1.5,0-3,0-4.5c0-0.6,0-1.2-0.1-1.8
		c-0.2-1.2-0.9-2-2-2.3c-0.4-0.1-0.7-0.2-1.1-0.2c-1.9,0-3.7-0.1-5.6-0.1c-0.6,0-1.3,0-1.9,0.1c-1,0.1-1.8,0.5-2.3,1.4
		c-0.3,0.5-0.4,1.1-0.4,1.8C10.2,14.6,10.2,15.7,10.1,16.9z"/>
	<path class="st0" d="M21,16.9c0,2.3-1.8,4-4.1,4c-2.2,0-4-1.8-4-4.1c0-2.2,1.8-4,4.1-4C19.2,12.9,21,14.7,21,16.9z M16.9,19.9
		c1.6,0,3-1.3,3-2.9c0-1.7-1.3-3-2.9-3c-1.7,0-3,1.3-3,2.9C14,18.6,15.3,19.9,16.9,19.9z"/>
	<path class="st0" d="M21.1,13.7c-0.5,0-0.9-0.4-0.9-0.9c0-0.5,0.4-1,0.9-1c0.5,0,1,0.4,1,1C22.1,13.2,21.7,13.7,21.1,13.7z"/>
</g>
</svg>
