<?xml version="1.0" encoding="utf-8"?>
<!-- Generator: Adobe Illustrator 21.1.0, SVG Export Plug-In . SVG Version: 6.00 Build 0)  -->
<svg version="1.1" id="Слой_1" xmlns="http://www.w3.org/2000/svg" xmlns:xlink="http://www.w3.org/1999/xlink" x="0px" y="0px"
	 width="33.9px" height="33.9px" viewBox="0 0 33.9 33.9" style="enable-background:new 0 0 33.9 33.9;" xml:space="preserve">
<style type="text/css">
	.st0{fill:#FFFFFF;}
</style>
<path class="st0" d="M16.9,33.9C7.6,33.9,0,26.3,0,16.9C0,7.6,7.6,0,16.9,0s16.9,7.6,16.9,16.9C33.9,26.3,26.3,33.9,16.9,33.9z
	 M16.9,1C8.1,1,1,8.1,1,16.9c0,8.8,7.1,15.9,15.9,15.9s15.9-7.1,15.9-15.9C32.9,8.1,25.7,1,16.9,1z"/>
<path class="st0" d="M25.7,12.2c0.1-0.4,0-0.7-0.6-0.7h-2c-0.5,0-0.7,0.3-0.9,0.6c0,0-1,2.5-2.5,4.1c-0.5,0.5-0.7,0.6-0.9,0.6
	c-0.1,0-0.3-0.2-0.3-0.6v-4c0-0.5-0.2-0.7-0.6-0.7h-3.2c-0.3,0-0.5,0.2-0.5,0.5c0,0.5,0.7,0.6,0.8,2v3c0,0.6-0.1,0.8-0.4,0.8
	c-0.7,0-2.3-2.5-3.3-5.4c-0.2-0.6-0.4-0.8-0.9-0.8h-2c-0.6,0-0.7,0.3-0.7,0.6c0,0.5,0.7,3.2,3.2,6.7c1.7,2.4,4,3.7,6.2,3.7
	c1.3,0,1.4-0.3,1.4-0.8v-1.8c0-0.6,0.1-0.7,0.5-0.7c0.3,0,0.8,0.2,2,1.3c1.4,1.4,1.6,2,2.4,2h2c0.6,0,0.9-0.3,0.7-0.9
	c-0.2-0.6-0.8-1.4-1.7-2.4c-0.5-0.5-1.2-1.2-1.4-1.4c-0.3-0.4-0.2-0.5,0-0.9C23,16.9,25.5,13.4,25.7,12.2"/>
</svg>
