<?xml version="1.0" encoding="utf-8"?>
<!-- Generator: Adobe Illustrator 19.0.1, SVG Export Plug-In . SVG Version: 6.00 Build 0)  -->
<svg version="1.1" class="iPad" xmlns="http://www.w3.org/2000/svg" xmlns:xlink="http://www.w3.org/1999/xlink" x="0px" y="0px"
	 width="76px" height="81px" viewBox="-89 65.8 76 81" style="enable-background:new -89 65.8 76 81;" xml:space="preserve">
<path style="fill:#0D0E0F;" d="M-31,80.8l-0.1-9.5c0-3-2.5-5.5-5.5-5.5h-46.9c-3.1,0-5.5,2.5-5.5,5.5v70.1c0,2,1.1,3.7,2.7,4.7
	c0.8,0.5,1.8,0.8,2.8,0.8h28.8l-0.8-0.7c-1.3-1.4-1.5-3.4-1.5-5.4v-4h-30v-62h54v6H-31z M-63,139.1c1.3,0,2.4,1.1,2.4,2.4
	c0,1.3-1.1,2.4-2.4,2.4s-2.4-1.1-2.4-2.4C-65.4,140.2-64.3,139.1-63,139.1z M-60.6,71.6c-0.7,0-1.2-0.6-1.2-1.2
	c0-0.6,0.5-1.2,1.2-1.2s1.2,0.6,1.2,1.2C-59.4,71-60,71.6-60.6,71.6z"/>
<path id="_x31_a" style="fill:#0D0E0F;" d="M-18,81.8h-33c-3,0-5,2-5,5v55c0,2,0.9,3,2.5,4l0,0l0,0c0.8,0.5,1.5,1,2.5,1h33
	c3,0,5-2.7,5-5.8V87C-13,84-15,81.8-18,81.8z M-34.6,85.3c0.6,0,1.1,0.5,1.1,1.1s-0.5,1.2-1.1,1.2c-0.6,0-1.1-0.5-1.1-1.1
	C-35.7,85.9-35.2,85.3-34.6,85.3z M-34.6,143.9c-1.3,0-2.4-1.1-2.4-2.4c0-1.3,1.1-2.4,2.4-2.4c1.3,0,2.4,1.1,2.4,2.4
	C-32.2,142.8-33.3,143.9-34.6,143.9z M-15,136.8h-39v-46h39V136.8z"/>
</svg>
