<?xml version="1.0" encoding="utf-8"?>
<!-- Generator: Adobe Illustrator 19.0.1, SVG Export Plug-In . SVG Version: 6.00 Build 0)  -->
<svg version="1.1" id="iPod" xmlns="http://www.w3.org/2000/svg" xmlns:xlink="http://www.w3.org/1999/xlink" x="0px" y="0px"
	 width="41px" height="72px" viewBox="0 0 41 72" style="enable-background:new 0 0 41 72;" xml:space="preserve">
<path id="_x32_a" style="fill-rule:evenodd;clip-rule:evenodd;fill:#0C0E0F;" d="M35,0H6C2.7,0,0,2.7,0,6v60c0,3.3,2.7,6,6,6h29
	c3.3,0,6-2.7,6-6V6C41,2.7,38.3,0,35,0z M2,6c0-2.2,1.8-4,4-4h29c2.2,0,4,1.8,4,4v33H2V6z M11,55c0-5.5,4.5-10,10-10
	c5.5,0,10,4.5,10,10s-4.5,10-10,10C15.5,65,11,60.5,11,55z M2,66c0,0.3,0,0.6,0.1,0.9C2,66.6,2,66.3,2,66L2,66z"/>
<circle id="_x31_a" style="fill-rule:evenodd;clip-rule:evenodd;fill:#0C0E0F;" cx="21" cy="55" r="5.7"/>
</svg>
