<?xml version="1.0" encoding="utf-8"?>
<!-- Generator: Adobe Illustrator 19.0.1, SVG Export Plug-In . SVG Version: 6.00 Build 0)  -->
<svg version="1.1" id="Sale" xmlns="http://www.w3.org/2000/svg" xmlns:xlink="http://www.w3.org/1999/xlink" x="0px" y="0px"
	 width="63px" height="69px" viewBox="0 0 63 69" style="enable-background:new 0 0 63 69;" xml:space="preserve">
<path id="_x31_a" style="fill:#0D0E0F;" d="M57,18H34.4c4.9-3.6,10.3-8.1,10.2-11.6c0-1.1-0.7-2-1.9-2.8C42,3.2,41.4,3,40.8,3
	c-4.5,0-7.6,10.9-8.4,14.3L32.2,18h-0.4c-1.5-3.9-7.5-18-13.7-18c-0.9,0-1.8,0.3-2.6,0.9c-2.1,1.5-2.8,3.4-2.1,5.8
	c1.3,4.1,6.6,8.7,11.8,11.3H6c-3.3,0-6,3-6,6.3v3c0,2.9,2.2,5.2,5,5.6v30.1c0,3.3,2.7,6,6,6h41c3.3,0,6-2.7,6-6V32.9
	c2.8-0.4,5-2.7,5-5.6v-3C63,21,60.3,18,57,18z M40.8,5c0.2,0,0.5,0.1,0.8,0.3c0.9,0.6,0.9,1,0.9,1.2c0,1.2-1.3,3.6-7.5,8.5
	C37,8.5,39.4,5,40.8,5z M15.3,6.1c-0.5-1.6-0.1-2.6,1.3-3.6c0.5-0.4,1-0.5,1.5-0.5c3.4,0,8.2,7.6,11.4,15.7
	C24,15.9,16.7,10.5,15.3,6.1z M2,27.3v-3C2,22.1,3.8,20,6,20h20v11H6C3.8,31,2,29.5,2,27.3z M7,63.1V33h19v34H11
	C8.8,67,7,65.2,7,63.1z M56,63.1c0,2.2-1.8,4-4,4H36V33h20V63.1z M61,27.3c0,2.2-1.8,3.7-4,3.7H36V20h21c2.2,0,4,2.1,4,4.3V27.3z"/>
</svg>
