<?xml version="1.0" encoding="iso-8859-1"?>
<!-- Generator: Adobe Illustrator 19.0.1, SVG Export Plug-In . SVG Version: 6.00 Build 0)  -->
<svg version="1.1" id="dol" xmlns="http://www.w3.org/2000/svg" xmlns:xlink="http://www.w3.org/1999/xlink" x="0px" y="0px"
	 width="142px" height="142px" viewBox="-234 326 142 142" style="enable-background:new -234 326 142 142;" xml:space="preserve">
<path id="a2" style="fill:#D5EF00;" d="M-163,468c-39.1,0-71-31.9-71-71s31.9-71,71-71s71,31.9,71,71S-123.9,468-163,468z M-163,328
	c-38,0-69,31-69,69s31,69,69,69s69-31,69-69S-125,328-163,328z"/>
<path id="a1" d="M-154.6,410c-0.4,0.9-0.9,1.7-1.7,2.3c-0.8,0.7-1.7,1.2-2.7,1.6c-1.1,0.4-2.3,0.6-3.6,0.6c-1.1,0-2.2-0.1-3.3-0.4
	c-1.1-0.3-2.1-0.8-3-1.5c-0.9-0.7-1.6-1.6-2.2-2.8c-0.6-1.1-0.8-2.6-0.8-4.3h-3.2c0,2.1,0.3,3.8,1,5.3c0.6,1.5,1.5,2.6,2.5,3.6
	c1.1,0.9,2.3,1.6,3.6,2.1c1.4,0.5,2.8,0.7,4.2,0.8v5.1h2.7v-5.1c1.6-0.1,3-0.4,4.2-1c1.3-0.5,2.4-1.2,3.3-2.1
	c0.9-0.9,1.6-1.9,2.1-3.1c0.5-1.2,0.7-2.6,0.7-4.1c0-1.6-0.3-3-0.8-4.1c-0.5-1.2-1.2-2.2-2.2-3c-0.9-0.9-2.1-1.6-3.4-2.3
	c-1.4-0.6-2.9-1.2-4.6-1.8c-1.8-0.6-3.2-1.2-4.4-1.8c-1.1-0.6-2.1-1.2-2.7-1.9c-0.7-0.7-1.1-1.4-1.4-2.2c-0.3-0.8-0.4-1.7-0.4-2.6
	c0-1,0.2-1.9,0.5-2.8c0.3-0.9,0.8-1.7,1.5-2.3c0.7-0.7,1.5-1.2,2.5-1.6c1-0.4,2.2-0.6,3.6-0.6c1.3,0,2.5,0.2,3.5,0.7
	s1.9,1.1,2.6,1.9c0.7,0.8,1.2,1.8,1.6,2.9c0.3,1.1,0.5,2.3,0.5,3.7h3.2c0-1.8-0.2-3.4-0.7-4.8c-0.4-1.4-1.1-2.6-1.9-3.7
	c-0.9-1-1.9-1.8-3.1-2.4c-1.2-0.6-2.6-1-4.2-1.1v-5.4h-2.7v5.4c-1.5,0.1-2.9,0.5-4.1,1s-2.3,1.2-3.1,2.1c-0.9,0.9-1.5,1.9-2,3.1
	c-0.5,1.2-0.7,2.5-0.7,4c0,1.6,0.3,3,0.8,4.2c0.5,1.2,1.2,2.2,2.2,3.1c0.9,0.9,2.1,1.6,3.5,2.3c1.4,0.6,2.9,1.2,4.6,1.8
	c1.6,0.6,3,1.2,4.1,1.7c1.1,0.6,2,1.2,2.7,1.9c0.7,0.7,1.2,1.4,1.5,2.2c0.3,0.8,0.4,1.7,0.4,2.7C-154.1,408.1-154.2,409.1-154.6,410
	z"/>
</svg>
