<?xml version="1.0" encoding="iso-8859-1"?>
<!-- Generator: Adobe Illustrator 19.0.1, SVG Export Plug-In . SVG Version: 6.00 Build 0)  -->
<svg version="1.1" id="like" xmlns="http://www.w3.org/2000/svg" xmlns:xlink="http://www.w3.org/1999/xlink" x="0px" y="0px"
	 width="142px" height="142px" viewBox="-234 326 142 142" style="enable-background:new -234 326 142 142;" xml:space="preserve">
<path id="a2" style="fill:#D5EF00;" d="M-163,468c-39.1,0-71-31.9-71-71s31.9-71,71-71s71,31.9,71,71S-123.9,468-163,468z M-163,328
	c-38,0-69,31-69,69s31,69,69,69s69-31,69-69S-125,328-163,328z"/>
<path id="a1" d="M-168.1,370c-2.2,1.6-3.3,4.4-3.3,8.3v9.2h-12.5c-4.5,0-8.1,3.7-8.1,8.2v0.3c0,0.1,0,0.2,0,0.2l3.3,21.2
	c0.6,5.1,4.1,8,9.6,8h24.8c4.5,0,8.1-3.7,8.1-8.2v-23.5c0-0.7,0.6-1.3,1.3-1.3h6.8c0.7,0,1.3,0.6,1.3,1.3v25c0,0.7-0.6,1.3-1.3,1.3
	h-10.3c-0.8,0-1.5,0.7-1.5,1.5s0.7,1.5,1.5,1.5h10.2c2.3,0,4.2-1.9,4.2-4.2v-25c0-2.3-1.9-4.2-4.2-4.2h-6.8c-1.6,0-3.1,1-3.7,2.4
	c-0.1-0.1-0.2-0.1-0.3-0.1c-0.4-0.1-9.6-2.9-9.6-11v-10.5c0-0.6-0.4-1.2-1-1.4C-159.8,368.9-164.6,367.4-168.1,370L-168.1,370z
	 M-149.8,394.5c0.2,0.1,0.4,0.1,0.7,0v22.8c0,2.9-2.3,5.3-5.2,5.3h-24.8c-4,0-6.3-1.8-6.7-5.5l-3.3-21.2v-0.1c0-2.9,2.3-5.3,5.2-5.3
	h14c0.8,0,1.5-0.7,1.5-1.5v-10.7c0-2.9,0.7-4.9,2.1-5.9c1.5-1.2,3.6-1,4.9-0.8v9.1C-161.5,391-150.3,394.4-149.8,394.5L-149.8,394.5
	z"/>
</svg>
