<?xml version="1.0" encoding="iso-8859-1"?>
<!-- Generator: Adobe Illustrator 19.0.1, SVG Export Plug-In . SVG Version: 6.00 Build 0)  -->
<svg version="1.1" id="auto" xmlns="http://www.w3.org/2000/svg" xmlns:xlink="http://www.w3.org/1999/xlink" x="0px" y="0px"
	 width="142px" height="142px" viewBox="-234 326 142 142" style="enable-background:new -234 326 142 142;" xml:space="preserve">
<path id="a4" style="fill:#D5EF00;" d="M-163,468c-39.1,0-71-31.9-71-71s31.9-71,71-71s71,31.9,71,71S-123.9,468-163,468z M-163,328
	c-38,0-69,31-69,69s31,69,69,69s69-31,69-69S-125,328-163,328z"/>
<path id="a3" d="M-132.5,398c0-3-1.4-5.6-3.6-7.3l-6.6-14.8c-0.7-2.6-3-4.4-5.6-4.4H-178c-2.7,0-5,1.8-5.6,4.4l-6.7,15.1
	c-2,1.7-3.2,4.2-3.2,7v17h4.8c0.3,4.2,3.7,7.5,8,7.5s7.7-3.3,8-7.5h19.9c0.3,4.2,3.7,7.5,8,7.5s7.7-3.3,8-7.5h4.3V398z M-181,376.9
	l0.1-0.3c0.3-1.4,1.5-2.3,3-2.3h29.6c1.4,0,2.6,1,3,2.3l5.5,12.3c-0.6-0.1-1.2-0.2-1.8-0.2h-42.7c-0.7,0-1.4,0.1-2.1,0.2L-181,376.9
	z M-180.7,419.7c-2.7,0-4.9-2.1-5.2-4.8h10.4C-175.8,417.6-178,419.7-180.7,419.7z M-144.8,419.7c-2.7,0-4.9-2.1-5.2-4.8h10.4
	C-139.8,417.6-142.1,419.7-144.8,419.7z M-135.3,412.2h-55.4V398c0-3.5,2.9-6.4,6.4-6.4h42.6c3.5,0,6.4,2.9,6.4,6.4
	C-135.3,398-135.3,412.2-135.3,412.2z"/>
<path id="a2_1_" d="M-181.7,395.1c-2.6,0-4.6,2.1-4.6,4.6s2.1,4.6,4.6,4.6c2.6,0,4.6-2.1,4.6-4.6S-179.2,395.1-181.7,395.1z
	 M-181.7,401.5c-1,0-1.8-0.8-1.8-1.8s0.8-1.8,1.8-1.8s1.8,0.8,1.8,1.8S-180.7,401.5-181.7,401.5z"/>
<path id="a1" d="M-144.8,395.1c-2.6,0-4.6,2.1-4.6,4.6s2.1,4.6,4.6,4.6c2.6,0,4.6-2.1,4.6-4.6S-142.2,395.1-144.8,395.1z
	 M-144.8,401.5c-1,0-1.8-0.8-1.8-1.8s0.8-1.8,1.8-1.8s1.8,0.8,1.8,1.8S-143.8,401.5-144.8,401.5z"/>
</svg>
