<?xml version="1.0" encoding="iso-8859-1"?>
<!-- Generator: Adobe Illustrator 19.0.1, SVG Export Plug-In . SVG Version: 6.00 Build 0)  -->
<svg version="1.1" id="search" xmlns="http://www.w3.org/2000/svg" xmlns:xlink="http://www.w3.org/1999/xlink" x="0px" y="0px"
	 width="142px" height="142px" viewBox="-234 326 142 142" style="enable-background:new -234 326 142 142;" xml:space="preserve">
<path id="a2" d="M-133.8,418.5l-14.4-12.1l0,0c4.1-5.3,5.5-12.5,3.1-19.3c-3.8-10.7-15.6-16.3-26.4-12.5
	c-10.8,3.9-16.5,15.6-12.8,26.3c3.7,10.7,15.6,16.3,26.4,12.5c3.1-1.1,5.7-2.8,7.8-4.9c0,0,0,0,0.1,0.1l14.4,12.1
	c0.4,0.3,0.9,0.4,1.4,0.2c0.2-0.1,0.4-0.2,0.6-0.4C-133.1,419.9-133.2,419-133.8,418.5z M-158.8,410.8c-9.3,3.3-19.6-1.6-22.8-10.8
	c-3.3-9.2,1.7-19.4,11-22.7c9.3-3.3,19.6,1.6,22.8,10.8C-144.5,397.3-149.5,407.5-158.8,410.8z"/>
<path style="fill:#D5EF00;" d="M-163,468c-39.1,0-71-31.9-71-71s31.9-71,71-71s71,31.9,71,71S-123.9,468-163,468z M-163,328
	c-38,0-69,31-69,69s31,69,69,69s69-31,69-69S-125,328-163,328z"/>
</svg>
