<?xml version="1.0" encoding="utf-8"?>
<!-- Generator: Adobe Illustrator 19.0.1, SVG Export Plug-In . SVG Version: 6.00 Build 0)  -->
<svg version="1.1" id="iPhone" xmlns="http://www.w3.org/2000/svg" xmlns:xlink="http://www.w3.org/1999/xlink" x="0px" y="0px"
	 width="56px" height="68px" viewBox="0 0 56 68" style="enable-background:new 0 0 56 68;" xml:space="preserve">
<path id="_x32_a" style="fill-rule:evenodd;clip-rule:evenodd;fill:#0C0E0F;" d="M50.5,0h-23c-3,0-5.5,2.5-5.5,5.5v57.1
	c0,2,1.1,3.7,2.7,4.7l0,0h0c0.8,0.5,1.8,0.8,2.8,0.8h23.1c3,0,5.5-2.5,5.5-5.5v-57C56,2.5,53.5,0,50.5,0z M36.5,62
	c0-1.4,1.1-2.5,2.5-2.5s2.5,1.1,2.5,2.5s-1.1,2.5-2.5,2.5S36.5,63.4,36.5,62z M24,58V9h30v49H24z M42,4v1h-6V4H42z"/>
<path id="_x31_a" style="fill-rule:evenodd;clip-rule:evenodd;fill:#0C0E0F;" d="M23.9,68c-1.7-0.9-2.8-2.5-2.9-4.4
	c0-0.2,0-0.4,0-0.6v-3H2V21h19v-7v-1l0,0H5.5c-3,0-5.5,2.5-5.5,5.5v44c0,3,2.5,5.5,5.5,5.5h16v0H23.9L23.9,68z M14.5,61.5
	c1.1,0,2,0.9,2,2s-0.9,2-2,2s-2-0.9-2-2S13.4,61.5,14.5,61.5z M16,18h-5v-1h5V18z"/>
</svg>
