<?xml version="1.0" encoding="utf-8"?>
<!-- Generator: Adobe Illustrator 19.0.1, SVG Export Plug-In . SVG Version: 6.00 Build 0)  -->
<svg version="1.1" id="logo" xmlns="http://www.w3.org/2000/svg" xmlns:xlink="http://www.w3.org/1999/xlink" x="0px" y="0px"
	 width="169.2px" height="25.8px" viewBox="0 0 169.2 25.8" style="enable-background:new 0 0 169.2 25.8;" xml:space="preserve">
<path id="k" style="fill:#FFFFFF;" d="M5.4,0H0v25.4h5.4v-5.5l1.4-1.7l4.2,7.2h6.7L10.6,15l6.3-7.1h-6.5l-3.5,5.3
	c-0.4,0.7-0.9,1.4-1.3,2.1H5.4V0z"/>
<path id="i" style="fill:#FFFFFF;" d="M25.7,25.4V7.9h-5.4v17.5H25.7z M23,0.3c-1.8,0-2.9,1.2-2.9,2.8c0,1.5,1.1,2.7,2.8,2.7
	c1.8,0,2.9-1.2,2.9-2.7C25.8,1.5,24.7,0.3,23,0.3z"/>
<path id="b" style="fill:#FFFFFF;" d="M34.3,25.4l0.2-2.4h0.1c1.3,2.1,3.2,2.8,5.3,2.8c4,0,8-3.1,8-9.4c0-5.4-3-8.8-7.2-8.8
	c-2.4,0-4.3,1-5.3,2.5h-0.1V0h-5.4v20.2c0,2-0.1,4.1-0.1,5.2H34.3z M35.2,15.4c0-0.4,0-0.7,0.1-1c0.4-1.6,1.7-2.7,3.2-2.7
	c2.5,0,3.8,2.1,3.8,4.9c0,3.1-1.4,4.9-3.8,4.9c-1.6,0-2.8-1.1-3.2-2.6c-0.1-0.3-0.1-0.6-0.1-1V15.4z"/>
<path id="e_2_" style="fill:#FFFFFF;" d="M67.5,18.4c0.1-0.4,0.2-1.2,0.2-2.1c0-4.3-2.1-8.7-7.8-8.7c-6.1,0-8.8,4.9-8.8,9.3
	c0,5.5,3.4,8.9,9.3,8.9c2.4,0,4.5-0.4,6.3-1.1L66,21c-1.5,0.5-3,0.7-4.8,0.7c-2.5,0-4.8-1.1-4.9-3.3H67.5z M56.2,14.7
	c0.1-1.5,1.1-3.5,3.4-3.5c2.5,0,3.1,2.2,3.1,3.5H56.2z"/>
<path id="r_1_" style="fill:#FFFFFF;" d="M70.4,25.4h5.4v-8.9c0-0.4,0-0.9,0.1-1.2c0.4-1.7,1.7-2.8,3.7-2.8c0.6,0,1.1,0.1,1.5,0.1
	V7.6c-0.4-0.1-0.6-0.1-1.1-0.1c-1.7,0-3.8,1.1-4.7,3.6h-0.1L75,7.9h-4.7c0.1,1.5,0.1,3.2,0.1,5.8V25.4z"/>
<path id="c" style="fill:#D5EF00;" d="M97.1,23.3c-0.9,0.4-2.3,1-4.3,1c-4,0-6.8-2.9-6.8-7.4c0-4,2.4-7.5,7-7.5c1.9,0,3.2,0.5,4,1
	l0.6-1.4c-0.6-0.5-2.4-1.1-4.5-1.1c-5.1,0-8.8,3.7-8.8,9.2c0,5.1,3.3,8.8,8.2,8.8c2.5,0,4.3-0.8,5-1.1L97.1,23.3z"/>
<path id="e_1_" style="fill:#D5EF00;" d="M114.1,16.6c0.1-0.3,0.1-0.6,0.1-1c0-2.5-1.1-7.8-6.7-7.8c-4.4,0-7.7,3.6-7.7,9.3
	c0,5,3.1,8.6,8,8.6c3,0,4.8-0.8,5.4-1.1l-0.4-1.3c-1,0.5-2.3,1-4.8,1c-3.5,0-6.5-2.2-6.5-7.7H114.1z M101.6,15.3
	c0.3-2.6,1.9-6,5.7-6c4.1,0,5.1,3.6,5.1,6H101.6z"/>
<path id="n" style="fill:#D5EF00;" d="M118.4,25.4h1.7V14.7c0-0.5,0.1-1.1,0.2-1.5c0.7-2.3,2.8-4,5.1-4c3.5,0,4.8,2.8,4.8,6v10.2
	h1.7V15.1c0-6.4-4.4-7.3-6-7.3c-2.8,0-5,1.5-5.9,3.5h-0.1l-0.1-3.1h-1.6c0.1,1.4,0.1,2.5,0.1,4.1V25.4z"/>
<path id="t" style="fill:#D5EF00;" d="M137.2,5.1v3.1h-2.9v1.4h2.9v10.8c0,1.8,0.3,3.2,1.1,4.1c0.6,0.8,1.7,1.2,2.9,1.2
	c1,0,1.8-0.2,2.4-0.4l-0.2-1.3c-0.4,0.1-1.1,0.3-2,0.3c-1.8,0-2.5-1.4-2.5-3.5V9.6h4.9V8.2h-4.9V4.4L137.2,5.1z"/>
<path id="r" style="fill:#D5EF00;" d="M147.3,25.4h1.7v-9.5c0-0.6,0-1.1,0.1-1.6c0.5-2.8,2.1-4.8,4.5-4.8c0.3,0,0.6,0,0.8,0V7.9
	c-0.2,0-0.5-0.1-0.7-0.1c-2.3,0-4.1,1.7-4.9,3.9h-0.1l-0.1-3.5h-1.6c0.1,1.7,0.1,3.4,0.1,5.1V25.4z"/>
<path id="e" style="fill:#D5EF00;" d="M169.2,16.6c0.1-0.3,0.1-0.6,0.1-1c0-2.5-1.1-7.8-6.7-7.8c-4.4,0-7.7,3.6-7.7,9.3
	c0,5,3.1,8.6,8,8.6c3,0,4.8-0.8,5.4-1.1l-0.4-1.3c-1,0.5-2.3,1-4.8,1c-3.5,0-6.5-2.2-6.5-7.7H169.2z M156.6,15.3
	c0.3-2.6,1.9-6,5.7-6c4.1,0,5.1,3.6,5.1,6H156.6z"/>
</svg>