<?xml version="1.0" encoding="utf-8"?>
<!-- Generator: Adobe Illustrator 19.0.1, SVG Export Plug-In . SVG Version: 6.00 Build 0)  -->
<svg version="1.1" id="mac" xmlns="http://www.w3.org/2000/svg" xmlns:xlink="http://www.w3.org/1999/xlink" x="0px" y="0px"
	 width="114px" height="77px" viewBox="0 0 114 77" style="enable-background:new 0 0 114 77;" xml:space="preserve">
<path id="_x32_a" style="fill-rule:evenodd;clip-rule:evenodd;fill:#0E0F10;" d="M73.3,73H68V38c0-1.1-0.9-2-2-2H7
	c-1.1,0-2,0.7-2,1.8v1V73H0c0,2.5,5,4,7.6,4h58.2C68.3,77,73.3,75.5,73.3,73z M7,73l0-35h59v35H7z"/>
<path id="_x31_a" style="fill-rule:evenodd;clip-rule:evenodd;fill:#0E0F10;" d="M112,0H24.6C23.5,0,23,0.9,23,2v33h2V2l87,0v49
	l-43,0v13v8l5.2-0.2L74,74c-0.6,2.5-1.7,3-4.1,3H86c0-0.1,0,0.1,0-1c-2.7-0.1-5,0.8-5-12c-0.5-0.2,29,0,29,0c2.2,0,4-2.2,4-4.4v-1.1
	V51V2C114,0.9,113.1,0,112,0z M73.3,59.3c-0.9,0-1.7-0.8-1.7-1.7c0-0.9,0.8-1.7,1.7-1.7c0.9,0,1.7,0.8,1.7,1.7
	C75,58.6,74.3,59.3,73.3,59.3z"/>
</svg>
