<?xml version="1.0" encoding="utf-8"?>
<!-- Generator: Adobe Illustrator 19.0.1, SVG Export Plug-In . SVG Version: 6.00 Build 0)  -->
<svg version="1.1" id="watch" xmlns="http://www.w3.org/2000/svg" xmlns:xlink="http://www.w3.org/1999/xlink" x="0px" y="0px"
	 width="42px" height="80px" viewBox="0 0 42 80" style="enable-background:new 0 0 42 80;" xml:space="preserve">
<path id="_x31_a" style="fill-rule:evenodd;clip-rule:evenodd;fill:#0F1010;" d="M39.6,17.2c-1.2-2.2-2.2-4.6-2.8-7.1l-1.1-4
	C35.2,2.6,32.3,0,28.8,0H13.3c-2.8,0-5.8,2.2-6.5,5L5.4,9.9c-0.7,2.5-1.7,5-3,7.2C1,18.3,0,20,0,22v36c0,2,1,3.7,2.4,4.8
	c1.2,2.2,2.2,4.6,2.8,7.1l1.1,4c0.4,3.5,3.3,6.1,6.8,6.1h15.5c2.8,0,5.8-2.2,6.5-5l1.4-4.9c0.7-2.5,1.7-5,3-7.2C41,61.7,42,60,42,58
	V22C42,20,41,18.3,39.6,17.2z M40,58c0,2.2-1.8,4-4,4H6c-2.2,0-4-1.8-4-4V22c0-2.2,1.8-4,4-4h30c2.2,0,4,1.8,4,4V58z"/>
</svg>
